<svg xmlns="http://www.w3.org/2000/svg" xmlns:xlink="http://www.w3.org/1999/xlink" width="1920" zoomAndPan="magnify" viewBox="0 0 1440 599.999999" height="800" preserveAspectRatio="xMidYMid meet" version="1.2"><defs><clipPath id="b942d8b53a"><path d="M 29.917969 58.882812 L 1006.167969 58.882812 L 1006.167969 540 L 29.917969 540 Z M 29.917969 58.882812 "/></clipPath><clipPath id="d0fbb6cd66"><path d="M 0.917969 0.882812 L 977 0.882812 L 977 482 L 0.917969 482 Z M 0.917969 0.882812 "/></clipPath><clipPath id="0844007e7a"><rect x="0" width="978" y="0" height="482"/></clipPath></defs><g id="7360b5dbcc"><g clip-rule="nonzero" clip-path="url(#b942d8b53a)"><g transform="matrix(1,0,0,1,29,58)"><g clip-path="url(#0844007e7a)"><g clip-rule="nonzero" clip-path="url(#d0fbb6cd66)"><path style=" stroke:none;fill-rule:nonzero;fill:#282120;fill-opacity:1;" d="M 0.917969 0.882812 L 976.304688 0.882812 L 976.304688 482 L 0.917969 482 Z M 0.917969 0.882812 "/></g></g></g></g><g style="fill:#f3f5f9;fill-opacity:1;"><g transform="translate(61.339052, 424.208841)"><path style="stroke:none" d="M 121.078125 -220.203125 C 134.503906 -220.203125 145.535156 -218.21875 154.171875 -214.25 C 162.816406 -210.289062 170.492188 -205.671875 177.203125 -200.390625 C 181.273438 -197.335938 184.375 -196.976562 186.5 -199.3125 C 188.632812 -201.65625 190.113281 -207.195312 190.9375 -215.9375 L 197.9375 -215.9375 C 197.53125 -208.007812 197.222656 -198.398438 197.015625 -187.109375 C 196.816406 -175.828125 196.71875 -160.832031 196.71875 -142.125 L 189.703125 -142.125 C 188.691406 -151.476562 187.375 -159.457031 185.75 -166.0625 C 184.125 -172.675781 181.882812 -178.523438 179.03125 -183.609375 C 176.1875 -188.691406 172.117188 -193.265625 166.828125 -197.328125 C 161.742188 -202.410156 155.847656 -206.171875 149.140625 -208.609375 C 142.429688 -211.054688 135.414062 -212.28125 128.09375 -212.28125 C 117.113281 -212.28125 107.757812 -209.378906 100.03125 -203.578125 C 92.3125 -197.785156 86.0625 -189.90625 81.28125 -179.9375 C 76.5 -169.976562 72.988281 -158.742188 70.75 -146.234375 C 68.519531 -133.734375 67.40625 -120.773438 67.40625 -107.359375 C 67.40625 -93.734375 68.570312 -80.664062 70.90625 -68.15625 C 73.25 -55.65625 76.910156 -44.523438 81.890625 -34.765625 C 86.867188 -25.003906 93.320312 -17.273438 101.25 -11.578125 C 109.1875 -5.890625 118.539062 -3.046875 129.3125 -3.046875 C 136.03125 -3.046875 142.789062 -4.316406 149.59375 -6.859375 C 156.40625 -9.398438 162.253906 -13.113281 167.140625 -18 C 175.066406 -24.09375 180.453125 -31.664062 183.296875 -40.71875 C 186.148438 -49.769531 188.285156 -61.816406 189.703125 -76.859375 L 196.71875 -76.859375 C 196.71875 -57.546875 196.816406 -41.941406 197.015625 -30.046875 C 197.222656 -18.148438 197.53125 -8.132812 197.9375 0 L 190.9375 0 C 190.113281 -8.738281 188.738281 -14.226562 186.8125 -16.46875 C 184.882812 -18.707031 181.679688 -18.40625 177.203125 -15.5625 C 169.679688 -10.269531 161.703125 -5.640625 153.265625 -1.671875 C 144.828125 2.285156 134 4.265625 120.78125 4.265625 C 99.226562 4.265625 80.367188 -0.101562 64.203125 -8.84375 C 48.035156 -17.582031 35.476562 -30.1875 26.53125 -46.65625 C 17.582031 -63.132812 13.109375 -82.960938 13.109375 -106.140625 C 13.109375 -128.910156 17.734375 -148.835938 26.984375 -165.921875 C 36.242188 -183.003906 48.953125 -196.320312 65.109375 -205.875 C 81.273438 -215.425781 99.929688 -220.203125 121.078125 -220.203125 Z M 121.078125 -220.203125 "/></g></g><g style="fill:#f3f5f9;fill-opacity:1;"><g transform="translate(327.301333, 424.208841)"><path style="stroke:none" d="M 104.609375 -215.9375 L 104.609375 -209.84375 C 98.109375 -209.632812 93.179688 -208.867188 89.828125 -207.546875 C 86.472656 -206.222656 84.285156 -203.78125 83.265625 -200.21875 C 82.242188 -196.664062 81.734375 -191.128906 81.734375 -183.609375 L 81.734375 -32.328125 C 81.734375 -25.003906 82.289062 -19.515625 83.40625 -15.859375 C 84.53125 -12.203125 86.71875 -9.757812 89.96875 -8.53125 C 93.226562 -7.3125 98.109375 -6.5 104.609375 -6.09375 L 104.609375 0 C 99.117188 -0.40625 92.207031 -0.660156 83.875 -0.765625 C 75.539062 -0.867188 67.101562 -0.921875 58.5625 -0.921875 C 48.59375 -0.921875 39.390625 -0.867188 30.953125 -0.765625 C 22.515625 -0.660156 15.65625 -0.40625 10.375 0 L 10.375 -6.09375 C 16.875 -6.5 21.75 -7.3125 25 -8.53125 C 28.257812 -9.757812 30.445312 -12.203125 31.5625 -15.859375 C 32.6875 -19.515625 33.25 -25.003906 33.25 -32.328125 L 33.25 -183.609375 C 33.25 -191.128906 32.6875 -196.664062 31.5625 -200.21875 C 30.445312 -203.78125 28.210938 -206.222656 24.859375 -207.546875 C 21.503906 -208.867188 16.675781 -209.632812 10.375 -209.84375 L 10.375 -215.9375 C 15.65625 -215.738281 22.515625 -215.535156 30.953125 -215.328125 C 39.390625 -215.128906 48.59375 -215.03125 58.5625 -215.03125 C 67.101562 -215.03125 75.539062 -215.128906 83.875 -215.328125 C 92.207031 -215.535156 99.117188 -215.738281 104.609375 -215.9375 Z M 104.609375 -215.9375 "/></g></g><g style="fill:#f3f5f9;fill-opacity:1;"><g transform="translate(492.918029, 424.208841)"><path style="stroke:none" d="M 104.609375 -215.9375 C 144.671875 -215.9375 174.460938 -206.835938 193.984375 -188.640625 C 213.503906 -170.441406 223.265625 -144.363281 223.265625 -110.40625 C 223.265625 -88.25 218.484375 -68.882812 208.921875 -52.3125 C 199.367188 -35.738281 185.492188 -22.875 167.296875 -13.71875 C 149.097656 -4.570312 127.289062 0 101.875 0 C 98.613281 0 94.335938 -0.0976562 89.046875 -0.296875 C 83.765625 -0.503906 78.273438 -0.660156 72.578125 -0.765625 C 66.890625 -0.867188 61.8125 -0.921875 57.34375 -0.921875 C 48.394531 -0.921875 39.597656 -0.867188 30.953125 -0.765625 C 22.316406 -0.660156 15.457031 -0.40625 10.375 0 L 10.375 -6.09375 C 16.875 -6.5 21.75 -7.3125 25 -8.53125 C 28.257812 -9.757812 30.445312 -12.203125 31.5625 -15.859375 C 32.6875 -19.515625 33.25 -25.003906 33.25 -32.328125 L 33.25 -183.609375 C 33.25 -191.128906 32.6875 -196.664062 31.5625 -200.21875 C 30.445312 -203.78125 28.210938 -206.222656 24.859375 -207.546875 C 21.503906 -208.867188 16.675781 -209.632812 10.375 -209.84375 L 10.375 -215.9375 C 15.457031 -215.738281 22.316406 -215.484375 30.953125 -215.171875 C 39.597656 -214.867188 48.191406 -214.820312 56.734375 -215.03125 C 64.046875 -215.226562 72.328125 -215.425781 81.578125 -215.625 C 90.835938 -215.832031 98.515625 -215.9375 104.609375 -215.9375 Z M 104.3125 -210.453125 C 94.957031 -210.453125 88.851562 -208.722656 86 -205.265625 C 83.15625 -201.804688 81.734375 -194.789062 81.734375 -184.21875 L 81.734375 -31.71875 C 81.734375 -21.144531 83.207031 -14.128906 86.15625 -10.671875 C 89.101562 -7.210938 95.253906 -5.484375 104.609375 -5.484375 C 121.691406 -5.484375 135.160156 -9.5 145.015625 -17.53125 C 154.878906 -25.5625 161.945312 -37.300781 166.21875 -52.75 C 170.488281 -68.207031 172.625 -87.019531 172.625 -109.1875 C 172.625 -131.957031 170.335938 -150.816406 165.765625 -165.765625 C 161.191406 -180.710938 153.921875 -191.894531 143.953125 -199.3125 C 133.992188 -206.738281 120.78125 -210.453125 104.3125 -210.453125 Z M 104.3125 -210.453125 "/></g></g><g style="fill:#f3f5f9;fill-opacity:1;"><g transform="translate(780.535419, 424.208841)"><path style="stroke:none" d="M 86.625 -219.90625 C 98.613281 -219.90625 107.863281 -218.632812 114.375 -216.09375 C 120.882812 -213.550781 126.476562 -210.859375 131.15625 -208.015625 C 133.59375 -206.585938 135.570312 -205.515625 137.09375 -204.796875 C 138.625 -204.085938 140.097656 -203.734375 141.515625 -203.734375 C 143.546875 -203.734375 145.019531 -204.851562 145.9375 -207.09375 C 146.851562 -209.332031 147.617188 -212.6875 148.234375 -217.15625 L 155.25 -217.15625 C 155.039062 -213.289062 154.785156 -208.664062 154.484375 -203.28125 C 154.179688 -197.894531 153.976562 -190.828125 153.875 -182.078125 C 153.769531 -173.335938 153.71875 -161.851562 153.71875 -147.625 L 146.703125 -147.625 C 145.890625 -158.195312 143.445312 -168.460938 139.375 -178.421875 C 135.3125 -188.390625 129.566406 -196.570312 122.140625 -202.96875 C 114.722656 -209.375 105.628906 -212.578125 94.859375 -212.578125 C 85.097656 -212.578125 77.066406 -209.832031 70.765625 -204.34375 C 64.460938 -198.851562 61.3125 -191.226562 61.3125 -181.46875 C 61.3125 -173.34375 63.34375 -166.378906 67.40625 -160.578125 C 71.46875 -154.785156 77.410156 -149.144531 85.234375 -143.65625 C 93.066406 -138.164062 102.578125 -131.554688 113.765625 -123.828125 C 123.523438 -117.523438 132.265625 -111.222656 139.984375 -104.921875 C 147.710938 -98.617188 153.914062 -91.5 158.59375 -83.5625 C 163.269531 -75.632812 165.609375 -66.179688 165.609375 -55.203125 C 165.609375 -41.785156 162.097656 -30.703125 155.078125 -21.953125 C 148.066406 -13.210938 138.867188 -6.65625 127.484375 -2.28125 C 116.097656 2.082031 103.59375 4.265625 89.96875 4.265625 C 77.363281 4.265625 67.300781 3.046875 59.78125 0.609375 C 52.257812 -1.828125 45.957031 -4.367188 40.875 -7.015625 C 36.394531 -9.859375 32.9375 -11.28125 30.5 -11.28125 C 28.46875 -11.28125 26.992188 -10.160156 26.078125 -7.921875 C 25.160156 -5.691406 24.398438 -2.335938 23.796875 2.140625 L 16.78125 2.140625 C 17.1875 -2.742188 17.4375 -8.4375 17.53125 -14.9375 C 17.632812 -21.445312 17.738281 -29.9375 17.84375 -40.40625 C 17.945312 -50.882812 18 -64.15625 18 -80.21875 L 25.015625 -80.21875 C 25.828125 -66.789062 28.113281 -54.234375 31.875 -42.546875 C 35.632812 -30.859375 41.425781 -21.453125 49.25 -14.328125 C 57.082031 -7.210938 67.503906 -3.65625 80.515625 -3.65625 C 87.628906 -3.65625 93.984375 -4.925781 99.578125 -7.46875 C 105.171875 -10.007812 109.695312 -13.820312 113.15625 -18.90625 C 116.613281 -23.988281 118.34375 -30.289062 118.34375 -37.8125 C 118.34375 -46.351562 116.359375 -53.773438 112.390625 -60.078125 C 108.421875 -66.390625 103.03125 -72.289062 96.21875 -77.78125 C 89.414062 -83.269531 81.539062 -88.859375 72.59375 -94.546875 C 63.03125 -100.847656 54.082031 -107.148438 45.75 -113.453125 C 37.414062 -119.765625 30.753906 -126.984375 25.765625 -135.109375 C 20.785156 -143.242188 18.296875 -152.90625 18.296875 -164.09375 C 18.296875 -176.90625 21.5 -187.425781 27.90625 -195.65625 C 34.3125 -203.894531 42.75 -209.992188 53.21875 -213.953125 C 63.695312 -217.921875 74.832031 -219.90625 86.625 -219.90625 Z M 86.625 -219.90625 "/></g></g><g style="fill:#ddb700;fill-opacity:1;"><g transform="translate(1009.596828, 424.208841)"><path style="stroke:none" d="M 104.609375 -215.9375 L 104.609375 -209.84375 C 98.109375 -209.632812 93.179688 -208.867188 89.828125 -207.546875 C 86.472656 -206.222656 84.285156 -203.78125 83.265625 -200.21875 C 82.242188 -196.664062 81.734375 -191.128906 81.734375 -183.609375 L 81.734375 -32.328125 C 81.734375 -25.003906 82.289062 -19.515625 83.40625 -15.859375 C 84.53125 -12.203125 86.71875 -9.757812 89.96875 -8.53125 C 93.226562 -7.3125 98.109375 -6.5 104.609375 -6.09375 L 104.609375 0 C 99.117188 -0.40625 92.207031 -0.660156 83.875 -0.765625 C 75.539062 -0.867188 67.101562 -0.921875 58.5625 -0.921875 C 48.59375 -0.921875 39.390625 -0.867188 30.953125 -0.765625 C 22.515625 -0.660156 15.65625 -0.40625 10.375 0 L 10.375 -6.09375 C 16.875 -6.5 21.75 -7.3125 25 -8.53125 C 28.257812 -9.757812 30.445312 -12.203125 31.5625 -15.859375 C 32.6875 -19.515625 33.25 -25.003906 33.25 -32.328125 L 33.25 -183.609375 C 33.25 -191.128906 32.6875 -196.664062 31.5625 -200.21875 C 30.445312 -203.78125 28.210938 -206.222656 24.859375 -207.546875 C 21.503906 -208.867188 16.675781 -209.632812 10.375 -209.84375 L 10.375 -215.9375 C 15.65625 -215.738281 22.515625 -215.535156 30.953125 -215.328125 C 39.390625 -215.128906 48.59375 -215.03125 58.5625 -215.03125 C 67.101562 -215.03125 75.539062 -215.128906 83.875 -215.328125 C 92.207031 -215.535156 99.117188 -215.738281 104.609375 -215.9375 Z M 104.609375 -215.9375 "/></g></g><g style="fill:#ddb700;fill-opacity:1;"><g transform="translate(1175.213508, 424.208841)"><path style="stroke:none" d="M 112.234375 -216.546875 L 186.359375 -25.625 C 189.203125 -18.300781 192.398438 -13.265625 195.953125 -10.515625 C 199.515625 -7.773438 202.71875 -6.300781 205.5625 -6.09375 L 205.5625 0 C 199.46875 -0.40625 192.300781 -0.660156 184.0625 -0.765625 C 175.832031 -0.867188 167.546875 -0.921875 159.203125 -0.921875 C 149.859375 -0.921875 141.015625 -0.867188 132.671875 -0.765625 C 124.335938 -0.660156 117.726562 -0.40625 112.84375 0 L 112.84375 -6.09375 C 123.21875 -6.5 129.773438 -8.28125 132.515625 -11.4375 C 135.265625 -14.59375 134.609375 -21.351562 130.546875 -31.71875 L 78.6875 -173.546875 L 84.1875 -181.46875 L 37.8125 -60.6875 C 33.34375 -49.507812 30.648438 -40.359375 29.734375 -33.234375 C 28.816406 -26.117188 29.320312 -20.628906 31.25 -16.765625 C 33.1875 -12.910156 36.34375 -10.21875 40.71875 -8.6875 C 45.09375 -7.164062 50.328125 -6.300781 56.421875 -6.09375 L 56.421875 0 C 49.710938 -0.40625 43.304688 -0.660156 37.203125 -0.765625 C 31.109375 -0.867188 24.910156 -0.921875 18.609375 -0.921875 C 14.128906 -0.921875 9.90625 -0.867188 5.9375 -0.765625 C 1.976562 -0.660156 -1.523438 -0.40625 -4.578125 0 L -4.578125 -6.09375 C -0.304688 -6.90625 4.0625 -9.648438 8.53125 -14.328125 C 13.007812 -19.003906 17.382812 -26.9375 21.65625 -38.125 L 91.1875 -216.546875 C 94.445312 -216.347656 97.957031 -216.25 101.71875 -216.25 C 105.476562 -216.25 108.984375 -216.347656 112.234375 -216.546875 Z M 133.59375 -87.84375 L 133.59375 -81.734375 L 42.703125 -81.734375 L 45.75 -87.84375 Z M 133.59375 -87.84375 "/></g></g></g></svg>